<mxfile host="Electron" modified="2024-01-07T08:44:43.670Z" agent="Mozilla/5.0 (Windows NT 10.0; Win64; x64) AppleWebKit/537.36 (KHTML, like Gecko) draw.io/22.1.16 Chrome/120.0.6099.109 Electron/28.1.0 Safari/537.36" etag="h-YUC8a-te5bbHFqGiKQ" version="22.1.16" type="device">
  <diagram name="Page-1" id="bXdYtp2R1P98XTLoc0Sf">
    <mxGraphModel dx="2060" dy="1190" grid="0" gridSize="10" guides="1" tooltips="1" connect="1" arrows="1" fold="1" page="1" pageScale="1" pageWidth="1700" pageHeight="1100" math="0" shadow="0">
      <root>
        <mxCell id="0" />
        <mxCell id="1" parent="0" />
        <mxCell id="Lbv0o0yv9vek2XfK-I1P-1" value="Actor" style="shape=umlActor;verticalLabelPosition=bottom;verticalAlign=top;html=1;" parent="1" vertex="1">
          <mxGeometry x="70" y="410" width="70" height="140" as="geometry" />
        </mxCell>
        <mxCell id="Lbv0o0yv9vek2XfK-I1P-5" value="" style="endArrow=none;html=1;rounded=0;entryX=0;entryY=0.5;entryDx=0;entryDy=0;" parent="1" target="Lbv0o0yv9vek2XfK-I1P-9" edge="1">
          <mxGeometry width="50" height="50" relative="1" as="geometry">
            <mxPoint x="130" y="490" as="sourcePoint" />
            <mxPoint x="340" y="280" as="targetPoint" />
          </mxGeometry>
        </mxCell>
        <mxCell id="Lbv0o0yv9vek2XfK-I1P-7" value="" style="endArrow=none;html=1;rounded=0;entryX=0;entryY=0.5;entryDx=0;entryDy=0;" parent="1" target="Lbv0o0yv9vek2XfK-I1P-8" edge="1">
          <mxGeometry width="50" height="50" relative="1" as="geometry">
            <mxPoint x="130" y="490" as="sourcePoint" />
            <mxPoint x="350" y="400" as="targetPoint" />
          </mxGeometry>
        </mxCell>
        <mxCell id="Lbv0o0yv9vek2XfK-I1P-8" value="&lt;font style=&quot;font-size: 18px;&quot;&gt;Introduce codul afisat in&lt;br&gt;notificare&lt;br&gt;&lt;/font&gt;" style="ellipse;whiteSpace=wrap;html=1;" parent="1" vertex="1">
          <mxGeometry x="360" y="390" width="230" height="70" as="geometry" />
        </mxCell>
        <mxCell id="Lbv0o0yv9vek2XfK-I1P-9" value="&lt;font style=&quot;font-size: 19px;&quot;&gt;Introduce cod &lt;br&gt;TOTP&lt;/font&gt;" style="ellipse;whiteSpace=wrap;html=1;" parent="1" vertex="1">
          <mxGeometry x="370" y="240" width="210" height="70" as="geometry" />
        </mxCell>
        <mxCell id="Lbv0o0yv9vek2XfK-I1P-10" value="" style="endArrow=none;html=1;rounded=0;entryX=0.016;entryY=0.41;entryDx=0;entryDy=0;entryPerimeter=0;" parent="1" target="Lbv0o0yv9vek2XfK-I1P-11" edge="1">
          <mxGeometry width="50" height="50" relative="1" as="geometry">
            <mxPoint x="130" y="490" as="sourcePoint" />
            <mxPoint x="370" y="480" as="targetPoint" />
          </mxGeometry>
        </mxCell>
        <mxCell id="Lbv0o0yv9vek2XfK-I1P-11" value="&lt;font style=&quot;font-size: 18px;&quot;&gt;Introduce token hardware in&lt;br&gt;USB&lt;/font&gt;" style="ellipse;whiteSpace=wrap;html=1;" parent="1" vertex="1">
          <mxGeometry x="370" y="810" width="250" height="70" as="geometry" />
        </mxCell>
        <mxCell id="Lbv0o0yv9vek2XfK-I1P-14" value="&lt;font style=&quot;font-size: 19px;&quot;&gt;Login&lt;/font&gt;" style="ellipse;whiteSpace=wrap;html=1;" parent="1" vertex="1">
          <mxGeometry x="840" y="390" width="180" height="70" as="geometry" />
        </mxCell>
        <mxCell id="Lbv0o0yv9vek2XfK-I1P-17" value="&lt;font style=&quot;font-size: 16px;&quot;&gt;&amp;lt;&amp;lt;include&amp;gt;&amp;gt;&lt;/font&gt;" style="endArrow=open;endSize=12;dashed=1;html=1;rounded=0;exitX=1;exitY=0.5;exitDx=0;exitDy=0;entryX=0.5;entryY=0;entryDx=0;entryDy=0;" parent="1" source="Lbv0o0yv9vek2XfK-I1P-9" target="Lbv0o0yv9vek2XfK-I1P-14" edge="1">
          <mxGeometry width="160" relative="1" as="geometry">
            <mxPoint x="560" y="250" as="sourcePoint" />
            <mxPoint x="720" y="250" as="targetPoint" />
          </mxGeometry>
        </mxCell>
        <mxCell id="Lbv0o0yv9vek2XfK-I1P-18" value="&lt;font style=&quot;font-size: 16px;&quot;&gt;&amp;lt;&amp;lt;include&amp;gt;&amp;gt;&lt;/font&gt;" style="endArrow=open;endSize=12;dashed=1;html=1;rounded=0;exitX=1.007;exitY=0.41;exitDx=0;exitDy=0;entryX=0;entryY=0.5;entryDx=0;entryDy=0;exitPerimeter=0;" parent="1" source="Lbv0o0yv9vek2XfK-I1P-8" target="Lbv0o0yv9vek2XfK-I1P-14" edge="1">
          <mxGeometry width="160" relative="1" as="geometry">
            <mxPoint x="540" y="285" as="sourcePoint" />
            <mxPoint x="860" y="320" as="targetPoint" />
          </mxGeometry>
        </mxCell>
        <mxCell id="Lbv0o0yv9vek2XfK-I1P-19" value="&lt;font style=&quot;font-size: 16px;&quot;&gt;&amp;lt;&amp;lt;include&amp;gt;&amp;gt;&lt;/font&gt;" style="endArrow=open;endSize=12;dashed=1;html=1;rounded=0;exitX=0.997;exitY=0.346;exitDx=0;exitDy=0;entryX=0.5;entryY=1;entryDx=0;entryDy=0;exitPerimeter=0;" parent="1" source="Lbv0o0yv9vek2XfK-I1P-11" target="Lbv0o0yv9vek2XfK-I1P-14" edge="1">
          <mxGeometry width="160" relative="1" as="geometry">
            <mxPoint x="550" y="295" as="sourcePoint" />
            <mxPoint x="870" y="330" as="targetPoint" />
          </mxGeometry>
        </mxCell>
        <mxCell id="Lbv0o0yv9vek2XfK-I1P-20" value="&lt;font style=&quot;font-size: 16px;&quot;&gt;&amp;lt;&amp;lt;include&amp;gt;&amp;gt;&lt;/font&gt;" style="endArrow=open;endSize=12;dashed=1;html=1;rounded=0;entryX=0.5;entryY=1;entryDx=0;entryDy=0;exitX=0.468;exitY=-0.046;exitDx=0;exitDy=0;exitPerimeter=0;" parent="1" source="Lbv0o0yv9vek2XfK-I1P-21" target="Lbv0o0yv9vek2XfK-I1P-8" edge="1">
          <mxGeometry width="160" relative="1" as="geometry">
            <mxPoint x="480" y="570" as="sourcePoint" />
            <mxPoint x="870" y="460" as="targetPoint" />
          </mxGeometry>
        </mxCell>
        <mxCell id="Lbv0o0yv9vek2XfK-I1P-21" value="&lt;font style=&quot;font-size: 16px;&quot;&gt;Accepta cererea&lt;br&gt;de conectare din notificare&amp;nbsp;&lt;/font&gt;" style="ellipse;whiteSpace=wrap;html=1;" parent="1" vertex="1">
          <mxGeometry x="375" y="560" width="215" height="70" as="geometry" />
        </mxCell>
        <mxCell id="Lbv0o0yv9vek2XfK-I1P-24" value="&lt;font style=&quot;font-size: 17px;&quot;&gt;Refuza cererea de&amp;nbsp;&lt;br&gt;conectare din notificare&lt;/font&gt;" style="ellipse;whiteSpace=wrap;html=1;" parent="1" vertex="1">
          <mxGeometry x="380" y="670" width="200" height="70" as="geometry" />
        </mxCell>
        <mxCell id="Lbv0o0yv9vek2XfK-I1P-25" value="" style="endArrow=none;html=1;rounded=0;entryX=0;entryY=0.5;entryDx=0;entryDy=0;" parent="1" target="Lbv0o0yv9vek2XfK-I1P-24" edge="1">
          <mxGeometry width="50" height="50" relative="1" as="geometry">
            <mxPoint x="130" y="490" as="sourcePoint" />
            <mxPoint x="210" y="470" as="targetPoint" />
          </mxGeometry>
        </mxCell>
        <mxCell id="Lbv0o0yv9vek2XfK-I1P-26" value="&lt;font style=&quot;font-size: 16px;&quot;&gt;&amp;lt;&amp;lt;include&amp;gt;&amp;gt;&lt;/font&gt;" style="endArrow=open;endSize=12;dashed=1;html=1;rounded=0;exitX=1;exitY=0.5;exitDx=0;exitDy=0;entryX=0.216;entryY=0.954;entryDx=0;entryDy=0;entryPerimeter=0;" parent="1" source="Lbv0o0yv9vek2XfK-I1P-24" target="Lbv0o0yv9vek2XfK-I1P-14" edge="1">
          <mxGeometry width="160" relative="1" as="geometry">
            <mxPoint x="659" y="874" as="sourcePoint" />
            <mxPoint x="940" y="470" as="targetPoint" />
          </mxGeometry>
        </mxCell>
      </root>
    </mxGraphModel>
  </diagram>
</mxfile>
